<mxfile host="app.diagrams.net" modified="2020-12-15T07:36:54.094Z" agent="5.0 (Windows NT 10.0; Win64; x64) AppleWebKit/537.36 (KHTML, like Gecko) Chrome/87.0.4280.88 Safari/537.36" etag="EcaD3n6g9OjG5WRWx4hi" version="14.0.1" type="github">
  <diagram id="jrBTxwVvPEKHvW8RWl7c" name="Page-1">
    <mxGraphModel dx="2249" dy="737" grid="1" gridSize="10" guides="1" tooltips="1" connect="1" arrows="1" fold="1" page="1" pageScale="1" pageWidth="827" pageHeight="1169" math="1" shadow="0">
      <root>
        <mxCell id="0" />
        <mxCell id="1" parent="0" />
        <mxCell id="EJYXfhAiwWMtOJAuiXjB-1" value="Asset" style="swimlane;childLayout=stackLayout;horizontal=1;startSize=30;horizontalStack=0;rounded=1;fontSize=14;fontStyle=0;strokeWidth=2;resizeParent=0;resizeLast=1;shadow=0;dashed=0;align=center;" parent="1" vertex="1">
          <mxGeometry x="-306" y="40" width="160" height="120" as="geometry">
            <mxRectangle x="344" y="50" width="70" height="30" as="alternateBounds" />
          </mxGeometry>
        </mxCell>
        <mxCell id="EJYXfhAiwWMtOJAuiXjB-2" value="+Asset number&#xa;+Asset name&#xa;+Asset description" style="align=left;strokeColor=none;fillColor=none;spacingLeft=4;fontSize=12;verticalAlign=top;resizable=0;rotatable=0;part=1;" parent="EJYXfhAiwWMtOJAuiXjB-1" vertex="1">
          <mxGeometry y="30" width="160" height="90" as="geometry" />
        </mxCell>
        <mxCell id="EJYXfhAiwWMtOJAuiXjB-3" value="Work Order" style="swimlane;childLayout=stackLayout;horizontal=1;startSize=30;horizontalStack=0;rounded=1;fontSize=14;fontStyle=0;strokeWidth=2;resizeParent=0;resizeLast=1;shadow=0;dashed=0;align=center;arcSize=16;" parent="1" vertex="1">
          <mxGeometry x="-680" y="270" width="160" height="170" as="geometry">
            <mxRectangle x="20" y="40" width="100" height="30" as="alternateBounds" />
          </mxGeometry>
        </mxCell>
        <mxCell id="EJYXfhAiwWMtOJAuiXjB-4" value="+Order number&#xa;+Order quantity&#xa;+Order date&#xa;+Expected start date&#xa;+Expected end date&#xa;+Actual start date&#xa;+Actual end date" style="align=left;strokeColor=none;fillColor=none;spacingLeft=4;fontSize=12;verticalAlign=top;resizable=0;rotatable=0;part=1;" parent="EJYXfhAiwWMtOJAuiXjB-3" vertex="1">
          <mxGeometry y="30" width="160" height="140" as="geometry" />
        </mxCell>
        <mxCell id="31" value="" style="edgeStyle=entityRelationEdgeStyle;fontSize=12;html=1;endArrow=ERoneToMany;dashed=1;exitX=0;exitY=0.75;exitDx=0;exitDy=0;entryX=0;entryY=0.25;entryDx=0;entryDy=0;jumpStyle=arc;jumpSize=17;curved=1;" parent="EJYXfhAiwWMtOJAuiXjB-3" source="EJYXfhAiwWMtOJAuiXjB-4" target="EJYXfhAiwWMtOJAuiXjB-4" edge="1">
          <mxGeometry width="100" height="100" relative="1" as="geometry">
            <mxPoint x="4.079999999999927" y="162.34" as="sourcePoint" />
            <mxPoint x="-70" y="59.999999999999964" as="targetPoint" />
            <Array as="points">
              <mxPoint x="-80" y="90" />
            </Array>
          </mxGeometry>
        </mxCell>
        <mxCell id="32" value="composed of" style="edgeLabel;html=1;align=center;verticalAlign=middle;resizable=0;points=[];" parent="31" vertex="1" connectable="0">
          <mxGeometry x="0.7539" y="2" relative="1" as="geometry">
            <mxPoint x="-28.78000000000001" y="30.46999999999999" as="offset" />
          </mxGeometry>
        </mxCell>
        <object label="" id="16">
          <mxCell style="edgeStyle=orthogonalEdgeStyle;rounded=0;orthogonalLoop=1;jettySize=auto;html=1;endArrow=open;endFill=0;" parent="1" source="EJYXfhAiwWMtOJAuiXjB-5" target="EJYXfhAiwWMtOJAuiXjB-2" edge="1">
            <mxGeometry relative="1" as="geometry" />
          </mxCell>
        </object>
        <mxCell id="EJYXfhAiwWMtOJAuiXjB-5" value="work_order" style="shape=table;startSize=30;container=1;collapsible=1;childLayout=tableLayout;fixedRows=1;rowLines=0;fontStyle=1;align=center;resizeLast=1;" parent="1" vertex="1">
          <mxGeometry x="-10" y="760" width="180" height="260" as="geometry" />
        </mxCell>
        <mxCell id="EJYXfhAiwWMtOJAuiXjB-6" value="" style="shape=partialRectangle;collapsible=0;dropTarget=0;pointerEvents=0;fillColor=none;top=0;left=0;bottom=1;right=0;points=[[0,0.5],[1,0.5]];portConstraint=eastwest;" parent="EJYXfhAiwWMtOJAuiXjB-5" vertex="1">
          <mxGeometry y="30" width="180" height="30" as="geometry" />
        </mxCell>
        <mxCell id="EJYXfhAiwWMtOJAuiXjB-7" value="PK" style="shape=partialRectangle;connectable=0;fillColor=none;top=0;left=0;bottom=0;right=0;fontStyle=1;overflow=hidden;" parent="EJYXfhAiwWMtOJAuiXjB-6" vertex="1">
          <mxGeometry width="30" height="30" as="geometry" />
        </mxCell>
        <mxCell id="EJYXfhAiwWMtOJAuiXjB-8" value="work_order_id" style="shape=partialRectangle;connectable=0;fillColor=none;top=0;left=0;bottom=0;right=0;align=left;spacingLeft=6;fontStyle=5;overflow=hidden;" parent="EJYXfhAiwWMtOJAuiXjB-6" vertex="1">
          <mxGeometry x="30" width="150" height="30" as="geometry" />
        </mxCell>
        <mxCell id="EJYXfhAiwWMtOJAuiXjB-9" value="" style="shape=partialRectangle;collapsible=0;dropTarget=0;pointerEvents=0;fillColor=none;top=0;left=0;bottom=0;right=0;points=[[0,0.5],[1,0.5]];portConstraint=eastwest;" parent="EJYXfhAiwWMtOJAuiXjB-5" vertex="1">
          <mxGeometry y="60" width="180" height="30" as="geometry" />
        </mxCell>
        <mxCell id="EJYXfhAiwWMtOJAuiXjB-10" value="" style="shape=partialRectangle;connectable=0;fillColor=none;top=0;left=0;bottom=0;right=0;editable=1;overflow=hidden;" parent="EJYXfhAiwWMtOJAuiXjB-9" vertex="1">
          <mxGeometry width="30" height="30" as="geometry" />
        </mxCell>
        <mxCell id="EJYXfhAiwWMtOJAuiXjB-11" value="name" style="shape=partialRectangle;connectable=0;fillColor=none;top=0;left=0;bottom=0;right=0;align=left;spacingLeft=6;overflow=hidden;" parent="EJYXfhAiwWMtOJAuiXjB-9" vertex="1">
          <mxGeometry x="30" width="150" height="30" as="geometry" />
        </mxCell>
        <mxCell id="EJYXfhAiwWMtOJAuiXjB-12" value="" style="shape=partialRectangle;collapsible=0;dropTarget=0;pointerEvents=0;fillColor=none;top=0;left=0;bottom=0;right=0;points=[[0,0.5],[1,0.5]];portConstraint=eastwest;" parent="EJYXfhAiwWMtOJAuiXjB-5" vertex="1">
          <mxGeometry y="90" width="180" height="30" as="geometry" />
        </mxCell>
        <mxCell id="EJYXfhAiwWMtOJAuiXjB-13" value="" style="shape=partialRectangle;connectable=0;fillColor=none;top=0;left=0;bottom=0;right=0;editable=1;overflow=hidden;" parent="EJYXfhAiwWMtOJAuiXjB-12" vertex="1">
          <mxGeometry width="30" height="30" as="geometry" />
        </mxCell>
        <mxCell id="EJYXfhAiwWMtOJAuiXjB-14" value="scheduled_start" style="shape=partialRectangle;connectable=0;fillColor=none;top=0;left=0;bottom=0;right=0;align=left;spacingLeft=6;overflow=hidden;" parent="EJYXfhAiwWMtOJAuiXjB-12" vertex="1">
          <mxGeometry x="30" width="150" height="30" as="geometry" />
        </mxCell>
        <mxCell id="EJYXfhAiwWMtOJAuiXjB-15" value="" style="shape=partialRectangle;collapsible=0;dropTarget=0;pointerEvents=0;fillColor=none;top=0;left=0;bottom=0;right=0;points=[[0,0.5],[1,0.5]];portConstraint=eastwest;" parent="EJYXfhAiwWMtOJAuiXjB-5" vertex="1">
          <mxGeometry y="120" width="180" height="30" as="geometry" />
        </mxCell>
        <mxCell id="EJYXfhAiwWMtOJAuiXjB-16" value="" style="shape=partialRectangle;connectable=0;fillColor=none;top=0;left=0;bottom=0;right=0;editable=1;overflow=hidden;" parent="EJYXfhAiwWMtOJAuiXjB-15" vertex="1">
          <mxGeometry width="30" height="30" as="geometry" />
        </mxCell>
        <mxCell id="EJYXfhAiwWMtOJAuiXjB-17" value="scheduled_end" style="shape=partialRectangle;connectable=0;fillColor=none;top=0;left=0;bottom=0;right=0;align=left;spacingLeft=6;overflow=hidden;" parent="EJYXfhAiwWMtOJAuiXjB-15" vertex="1">
          <mxGeometry x="30" width="150" height="30" as="geometry" />
        </mxCell>
        <mxCell id="9aYNjaXxrsyocUO3HqyN-43" value="" style="shape=partialRectangle;collapsible=0;dropTarget=0;pointerEvents=0;fillColor=none;top=0;left=0;bottom=0;right=0;points=[[0,0.5],[1,0.5]];portConstraint=eastwest;" vertex="1" parent="EJYXfhAiwWMtOJAuiXjB-5">
          <mxGeometry y="150" width="180" height="30" as="geometry" />
        </mxCell>
        <mxCell id="9aYNjaXxrsyocUO3HqyN-44" value="" style="shape=partialRectangle;connectable=0;fillColor=none;top=0;left=0;bottom=0;right=0;editable=1;overflow=hidden;" vertex="1" parent="9aYNjaXxrsyocUO3HqyN-43">
          <mxGeometry width="30" height="30" as="geometry" />
        </mxCell>
        <mxCell id="9aYNjaXxrsyocUO3HqyN-45" value="Row" style="shape=partialRectangle;connectable=0;fillColor=none;top=0;left=0;bottom=0;right=0;align=left;spacingLeft=6;overflow=hidden;" vertex="1" parent="9aYNjaXxrsyocUO3HqyN-43">
          <mxGeometry x="30" width="150" height="30" as="geometry" />
        </mxCell>
        <mxCell id="EJYXfhAiwWMtOJAuiXjB-18" value="Table" style="shape=table;startSize=30;container=1;collapsible=1;childLayout=tableLayout;fixedRows=1;rowLines=0;fontStyle=1;align=center;resizeLast=1;" parent="1" vertex="1">
          <mxGeometry x="-306" y="570" width="180" height="160" as="geometry" />
        </mxCell>
        <mxCell id="EJYXfhAiwWMtOJAuiXjB-19" value="" style="shape=partialRectangle;collapsible=0;dropTarget=0;pointerEvents=0;fillColor=none;top=0;left=0;bottom=1;right=0;points=[[0,0.5],[1,0.5]];portConstraint=eastwest;" parent="EJYXfhAiwWMtOJAuiXjB-18" vertex="1">
          <mxGeometry y="30" width="180" height="30" as="geometry" />
        </mxCell>
        <mxCell id="EJYXfhAiwWMtOJAuiXjB-20" value="PK" style="shape=partialRectangle;connectable=0;fillColor=none;top=0;left=0;bottom=0;right=0;fontStyle=1;overflow=hidden;" parent="EJYXfhAiwWMtOJAuiXjB-19" vertex="1">
          <mxGeometry width="30" height="30" as="geometry" />
        </mxCell>
        <mxCell id="EJYXfhAiwWMtOJAuiXjB-21" value="UniqueID" style="shape=partialRectangle;connectable=0;fillColor=none;top=0;left=0;bottom=0;right=0;align=left;spacingLeft=6;fontStyle=5;overflow=hidden;" parent="EJYXfhAiwWMtOJAuiXjB-19" vertex="1">
          <mxGeometry x="30" width="150" height="30" as="geometry" />
        </mxCell>
        <mxCell id="EJYXfhAiwWMtOJAuiXjB-22" value="" style="shape=partialRectangle;collapsible=0;dropTarget=0;pointerEvents=0;fillColor=none;top=0;left=0;bottom=0;right=0;points=[[0,0.5],[1,0.5]];portConstraint=eastwest;" parent="EJYXfhAiwWMtOJAuiXjB-18" vertex="1">
          <mxGeometry y="60" width="180" height="30" as="geometry" />
        </mxCell>
        <mxCell id="EJYXfhAiwWMtOJAuiXjB-23" value="" style="shape=partialRectangle;connectable=0;fillColor=none;top=0;left=0;bottom=0;right=0;editable=1;overflow=hidden;" parent="EJYXfhAiwWMtOJAuiXjB-22" vertex="1">
          <mxGeometry width="30" height="30" as="geometry" />
        </mxCell>
        <mxCell id="EJYXfhAiwWMtOJAuiXjB-24" value="Row 1" style="shape=partialRectangle;connectable=0;fillColor=none;top=0;left=0;bottom=0;right=0;align=left;spacingLeft=6;overflow=hidden;" parent="EJYXfhAiwWMtOJAuiXjB-22" vertex="1">
          <mxGeometry x="30" width="150" height="30" as="geometry" />
        </mxCell>
        <mxCell id="EJYXfhAiwWMtOJAuiXjB-25" value="" style="shape=partialRectangle;collapsible=0;dropTarget=0;pointerEvents=0;fillColor=none;top=0;left=0;bottom=0;right=0;points=[[0,0.5],[1,0.5]];portConstraint=eastwest;" parent="EJYXfhAiwWMtOJAuiXjB-18" vertex="1">
          <mxGeometry y="90" width="180" height="30" as="geometry" />
        </mxCell>
        <mxCell id="EJYXfhAiwWMtOJAuiXjB-26" value="" style="shape=partialRectangle;connectable=0;fillColor=none;top=0;left=0;bottom=0;right=0;editable=1;overflow=hidden;" parent="EJYXfhAiwWMtOJAuiXjB-25" vertex="1">
          <mxGeometry width="30" height="30" as="geometry" />
        </mxCell>
        <mxCell id="EJYXfhAiwWMtOJAuiXjB-27" value="Row 2" style="shape=partialRectangle;connectable=0;fillColor=none;top=0;left=0;bottom=0;right=0;align=left;spacingLeft=6;overflow=hidden;" parent="EJYXfhAiwWMtOJAuiXjB-25" vertex="1">
          <mxGeometry x="30" width="150" height="30" as="geometry" />
        </mxCell>
        <mxCell id="EJYXfhAiwWMtOJAuiXjB-28" value="" style="shape=partialRectangle;collapsible=0;dropTarget=0;pointerEvents=0;fillColor=none;top=0;left=0;bottom=0;right=0;points=[[0,0.5],[1,0.5]];portConstraint=eastwest;" parent="EJYXfhAiwWMtOJAuiXjB-18" vertex="1">
          <mxGeometry y="120" width="180" height="30" as="geometry" />
        </mxCell>
        <mxCell id="EJYXfhAiwWMtOJAuiXjB-29" value="" style="shape=partialRectangle;connectable=0;fillColor=none;top=0;left=0;bottom=0;right=0;editable=1;overflow=hidden;" parent="EJYXfhAiwWMtOJAuiXjB-28" vertex="1">
          <mxGeometry width="30" height="30" as="geometry" />
        </mxCell>
        <mxCell id="EJYXfhAiwWMtOJAuiXjB-30" value="Row 3" style="shape=partialRectangle;connectable=0;fillColor=none;top=0;left=0;bottom=0;right=0;align=left;spacingLeft=6;overflow=hidden;" parent="EJYXfhAiwWMtOJAuiXjB-28" vertex="1">
          <mxGeometry x="30" width="150" height="30" as="geometry" />
        </mxCell>
        <mxCell id="EJYXfhAiwWMtOJAuiXjB-31" value="" style="edgeStyle=entityRelationEdgeStyle;fontSize=12;html=1;endArrow=ERoneToMany;" parent="1" source="EJYXfhAiwWMtOJAuiXjB-6" target="EJYXfhAiwWMtOJAuiXjB-22" edge="1">
          <mxGeometry width="100" height="100" relative="1" as="geometry">
            <mxPoint x="-270" y="480" as="sourcePoint" />
            <mxPoint x="-170" y="380" as="targetPoint" />
          </mxGeometry>
        </mxCell>
        <mxCell id="2" value="" style="shape=table;html=1;whiteSpace=wrap;startSize=0;container=1;collapsible=0;childLayout=tableLayout;" parent="1" vertex="1">
          <mxGeometry x="-60" y="580" width="180" height="120" as="geometry" />
        </mxCell>
        <mxCell id="3" value="" style="shape=partialRectangle;html=1;whiteSpace=wrap;collapsible=0;dropTarget=0;pointerEvents=0;fillColor=none;top=0;left=0;bottom=0;right=0;points=[[0,0.5],[1,0.5]];portConstraint=eastwest;" parent="2" vertex="1">
          <mxGeometry width="180" height="40" as="geometry" />
        </mxCell>
        <mxCell id="4" value="Test" style="shape=partialRectangle;html=1;whiteSpace=wrap;connectable=0;fillColor=none;top=0;left=0;bottom=0;right=0;overflow=hidden;" parent="3" vertex="1">
          <mxGeometry width="60" height="40" as="geometry" />
        </mxCell>
        <mxCell id="5" value="" style="shape=partialRectangle;html=1;whiteSpace=wrap;connectable=0;fillColor=none;top=0;left=0;bottom=0;right=0;overflow=hidden;" parent="3" vertex="1">
          <mxGeometry x="60" width="60" height="40" as="geometry" />
        </mxCell>
        <mxCell id="6" value="" style="shape=partialRectangle;html=1;whiteSpace=wrap;connectable=0;fillColor=none;top=0;left=0;bottom=0;right=0;overflow=hidden;" parent="3" vertex="1">
          <mxGeometry x="120" width="60" height="40" as="geometry" />
        </mxCell>
        <mxCell id="7" value="" style="shape=partialRectangle;html=1;whiteSpace=wrap;collapsible=0;dropTarget=0;pointerEvents=0;fillColor=none;top=0;left=0;bottom=0;right=0;points=[[0,0.5],[1,0.5]];portConstraint=eastwest;" parent="2" vertex="1">
          <mxGeometry y="40" width="180" height="40" as="geometry" />
        </mxCell>
        <mxCell id="8" value="" style="shape=partialRectangle;html=1;whiteSpace=wrap;connectable=0;fillColor=none;top=0;left=0;bottom=0;right=0;overflow=hidden;" parent="7" vertex="1">
          <mxGeometry width="60" height="40" as="geometry" />
        </mxCell>
        <mxCell id="9" value="" style="shape=partialRectangle;html=1;whiteSpace=wrap;connectable=0;fillColor=none;top=0;left=0;bottom=0;right=0;overflow=hidden;" parent="7" vertex="1">
          <mxGeometry x="60" width="60" height="40" as="geometry" />
        </mxCell>
        <mxCell id="10" value="" style="shape=partialRectangle;html=1;whiteSpace=wrap;connectable=0;fillColor=none;top=0;left=0;bottom=0;right=0;overflow=hidden;" parent="7" vertex="1">
          <mxGeometry x="120" width="60" height="40" as="geometry" />
        </mxCell>
        <mxCell id="11" value="" style="shape=partialRectangle;html=1;whiteSpace=wrap;collapsible=0;dropTarget=0;pointerEvents=0;fillColor=none;top=0;left=0;bottom=0;right=0;points=[[0,0.5],[1,0.5]];portConstraint=eastwest;" parent="2" vertex="1">
          <mxGeometry y="80" width="180" height="40" as="geometry" />
        </mxCell>
        <mxCell id="12" value="" style="shape=partialRectangle;html=1;whiteSpace=wrap;connectable=0;fillColor=none;top=0;left=0;bottom=0;right=0;overflow=hidden;" parent="11" vertex="1">
          <mxGeometry width="60" height="40" as="geometry" />
        </mxCell>
        <mxCell id="13" value="" style="shape=partialRectangle;html=1;whiteSpace=wrap;connectable=0;fillColor=none;top=0;left=0;bottom=0;right=0;overflow=hidden;" parent="11" vertex="1">
          <mxGeometry x="60" width="60" height="40" as="geometry" />
        </mxCell>
        <mxCell id="14" value="" style="shape=partialRectangle;html=1;whiteSpace=wrap;connectable=0;fillColor=none;top=0;left=0;bottom=0;right=0;overflow=hidden;" parent="11" vertex="1">
          <mxGeometry x="120" width="60" height="40" as="geometry" />
        </mxCell>
        <mxCell id="22" value="" style="fontSize=12;html=1;endArrow=ERoneToMany;exitX=0;exitY=0.25;exitDx=0;exitDy=0;entryX=1;entryY=0.25;entryDx=0;entryDy=0;metaEdit=1;" parent="1" source="EJYXfhAiwWMtOJAuiXjB-2" target="9aYNjaXxrsyocUO3HqyN-36" edge="1">
          <mxGeometry width="100" height="100" relative="1" as="geometry">
            <mxPoint x="-460" y="350" as="sourcePoint" />
            <mxPoint x="-360" y="250" as="targetPoint" />
          </mxGeometry>
        </mxCell>
        <mxCell id="23" value="is built, fixed, &lt;br&gt;removed, &lt;br&gt;maintained by" style="edgeLabel;html=1;align=center;verticalAlign=middle;resizable=0;points=[];" parent="22" vertex="1" connectable="0">
          <mxGeometry x="-0.2051" y="3" relative="1" as="geometry">
            <mxPoint x="-89" y="24.499999999999993" as="offset" />
          </mxGeometry>
        </mxCell>
        <mxCell id="24" value="to build, fix &lt;br&gt;or remove" style="edgeLabel;html=1;align=center;verticalAlign=middle;resizable=0;points=[];" parent="22" vertex="1" connectable="0">
          <mxGeometry x="0.0413" y="-4" relative="1" as="geometry">
            <mxPoint x="79.85" y="-18.5" as="offset" />
          </mxGeometry>
        </mxCell>
        <mxCell id="25" value="Asset Type" style="swimlane;childLayout=stackLayout;horizontal=1;startSize=30;horizontalStack=0;rounded=1;fontSize=14;fontStyle=0;strokeWidth=2;resizeParent=0;resizeLast=1;shadow=0;dashed=0;align=center;" parent="1" vertex="1">
          <mxGeometry x="-30" y="40" width="160" height="120" as="geometry" />
        </mxCell>
        <mxCell id="26" value="+Attribute1&#xa;+Attribute2&#xa;+Attribute3" style="align=left;strokeColor=none;fillColor=none;spacingLeft=4;fontSize=12;verticalAlign=top;resizable=0;rotatable=0;part=1;" parent="25" vertex="1">
          <mxGeometry y="30" width="160" height="90" as="geometry" />
        </mxCell>
        <mxCell id="28" value="" style="fontSize=12;html=1;endArrow=ERoneToMany;exitX=-0.017;exitY=0.361;exitDx=0;exitDy=0;exitPerimeter=0;" parent="1" source="26" edge="1">
          <mxGeometry width="100" height="100" relative="1" as="geometry">
            <mxPoint x="-530" y="190" as="sourcePoint" />
            <mxPoint x="-146" y="102" as="targetPoint" />
          </mxGeometry>
        </mxCell>
        <mxCell id="9aYNjaXxrsyocUO3HqyN-35" value="Asset Work Order" style="swimlane;childLayout=stackLayout;horizontal=1;startSize=30;horizontalStack=0;rounded=1;fontSize=14;fontStyle=0;strokeWidth=2;resizeParent=0;resizeLast=1;shadow=0;dashed=0;align=center;" vertex="1" parent="1">
          <mxGeometry x="-680" y="40" width="160" height="120" as="geometry" />
        </mxCell>
        <mxCell id="9aYNjaXxrsyocUO3HqyN-36" value="+Order number&#xa;+Asset number" style="align=left;strokeColor=none;fillColor=none;spacingLeft=4;fontSize=12;verticalAlign=top;resizable=0;rotatable=0;part=1;" vertex="1" parent="9aYNjaXxrsyocUO3HqyN-35">
          <mxGeometry y="30" width="160" height="90" as="geometry" />
        </mxCell>
        <mxCell id="9aYNjaXxrsyocUO3HqyN-38" value="" style="edgeStyle=entityRelationEdgeStyle;fontSize=12;html=1;endArrow=ERoneToMany;exitX=1;exitY=0.5;exitDx=0;exitDy=0;" edge="1" parent="1" source="9aYNjaXxrsyocUO3HqyN-62" target="9aYNjaXxrsyocUO3HqyN-89">
          <mxGeometry width="100" height="100" relative="1" as="geometry">
            <mxPoint x="-340" y="420" as="sourcePoint" />
            <mxPoint x="-240" y="320" as="targetPoint" />
          </mxGeometry>
        </mxCell>
        <mxCell id="9aYNjaXxrsyocUO3HqyN-39" value="" style="edgeStyle=entityRelationEdgeStyle;fontSize=12;html=1;endArrow=ERmandOne;" edge="1" parent="1">
          <mxGeometry width="100" height="100" relative="1" as="geometry">
            <mxPoint x="-420" y="380" as="sourcePoint" />
            <mxPoint x="-320" y="280" as="targetPoint" />
          </mxGeometry>
        </mxCell>
        <mxCell id="9aYNjaXxrsyocUO3HqyN-40" value="" style="fontSize=12;html=1;endArrow=ERoneToMany;exitX=0.5;exitY=0;exitDx=0;exitDy=0;strokeWidth=1;entryX=0.5;entryY=1;entryDx=0;entryDy=0;" edge="1" parent="1" source="EJYXfhAiwWMtOJAuiXjB-3" target="9aYNjaXxrsyocUO3HqyN-36">
          <mxGeometry width="100" height="100" relative="1" as="geometry">
            <mxPoint x="-300" y="450" as="sourcePoint" />
            <mxPoint x="-510" y="170" as="targetPoint" />
          </mxGeometry>
        </mxCell>
        <mxCell id="9aYNjaXxrsyocUO3HqyN-68" style="edgeStyle=none;rounded=1;orthogonalLoop=1;jettySize=auto;html=1;strokeColor=#d79b00;strokeWidth=1;dashed=1;startArrow=none;startFill=0;endArrow=open;endFill=0;fillColor=#ffe6cc;" edge="1" parent="1" source="9aYNjaXxrsyocUO3HqyN-46" target="EJYXfhAiwWMtOJAuiXjB-4">
          <mxGeometry relative="1" as="geometry" />
        </mxCell>
        <mxCell id="9aYNjaXxrsyocUO3HqyN-69" value="trace" style="edgeLabel;html=1;align=center;verticalAlign=middle;resizable=0;points=[];" vertex="1" connectable="0" parent="9aYNjaXxrsyocUO3HqyN-68">
          <mxGeometry x="0.2279" y="-1" relative="1" as="geometry">
            <mxPoint as="offset" />
          </mxGeometry>
        </mxCell>
        <mxCell id="9aYNjaXxrsyocUO3HqyN-46" value="dbo.work_order_type" style="shape=table;startSize=30;container=1;collapsible=1;childLayout=tableLayout;fixedRows=1;rowLines=0;fontStyle=1;align=center;resizeLast=1;fillColor=#ffe6cc;strokeColor=#d79b00;" vertex="1" parent="1">
          <mxGeometry x="-755" y="540" width="310" height="190" as="geometry" />
        </mxCell>
        <mxCell id="9aYNjaXxrsyocUO3HqyN-62" value="" style="shape=partialRectangle;collapsible=0;dropTarget=0;pointerEvents=0;fillColor=none;points=[[0,0.5],[1,0.5]];portConstraint=eastwest;top=0;left=0;right=0;bottom=1;" vertex="1" parent="9aYNjaXxrsyocUO3HqyN-46">
          <mxGeometry y="30" width="310" height="30" as="geometry" />
        </mxCell>
        <mxCell id="9aYNjaXxrsyocUO3HqyN-63" value="PK" style="shape=partialRectangle;overflow=hidden;connectable=0;fillColor=none;top=0;left=0;bottom=0;right=0;fontStyle=1;" vertex="1" parent="9aYNjaXxrsyocUO3HqyN-62">
          <mxGeometry width="30" height="30" as="geometry" />
        </mxCell>
        <mxCell id="9aYNjaXxrsyocUO3HqyN-64" value="name varchar(128) NOT NULL CLUSTERED" style="shape=partialRectangle;overflow=hidden;connectable=0;fillColor=none;top=0;left=0;bottom=0;right=0;align=left;spacingLeft=6;fontStyle=5;" vertex="1" parent="9aYNjaXxrsyocUO3HqyN-62">
          <mxGeometry x="30" width="280" height="30" as="geometry" />
        </mxCell>
        <mxCell id="9aYNjaXxrsyocUO3HqyN-50" value="" style="shape=partialRectangle;collapsible=0;dropTarget=0;pointerEvents=0;fillColor=none;points=[[0,0.5],[1,0.5]];portConstraint=eastwest;top=0;left=0;right=0;bottom=0;" vertex="1" parent="9aYNjaXxrsyocUO3HqyN-46">
          <mxGeometry y="60" width="310" height="30" as="geometry" />
        </mxCell>
        <mxCell id="9aYNjaXxrsyocUO3HqyN-51" value="" style="shape=partialRectangle;overflow=hidden;connectable=0;fillColor=none;top=0;left=0;bottom=0;right=0;" vertex="1" parent="9aYNjaXxrsyocUO3HqyN-50">
          <mxGeometry width="30" height="30" as="geometry" />
        </mxCell>
        <mxCell id="9aYNjaXxrsyocUO3HqyN-52" value="description varchar(256) NULL" style="shape=partialRectangle;overflow=hidden;connectable=0;fillColor=none;top=0;left=0;bottom=0;right=0;align=left;spacingLeft=6;" vertex="1" parent="9aYNjaXxrsyocUO3HqyN-50">
          <mxGeometry x="30" width="280" height="30" as="geometry" />
        </mxCell>
        <mxCell id="9aYNjaXxrsyocUO3HqyN-53" value="" style="shape=partialRectangle;collapsible=0;dropTarget=0;pointerEvents=0;fillColor=none;points=[[0,0.5],[1,0.5]];portConstraint=eastwest;top=0;left=0;right=0;bottom=0;" vertex="1" parent="9aYNjaXxrsyocUO3HqyN-46">
          <mxGeometry y="90" width="310" height="30" as="geometry" />
        </mxCell>
        <mxCell id="9aYNjaXxrsyocUO3HqyN-54" value="" style="shape=partialRectangle;overflow=hidden;connectable=0;fillColor=none;top=0;left=0;bottom=0;right=0;" vertex="1" parent="9aYNjaXxrsyocUO3HqyN-53">
          <mxGeometry width="30" height="30" as="geometry" />
        </mxCell>
        <mxCell id="9aYNjaXxrsyocUO3HqyN-55" value="estimate bit NOT NULL" style="shape=partialRectangle;overflow=hidden;connectable=0;fillColor=none;top=0;left=0;bottom=0;right=0;align=left;spacingLeft=6;" vertex="1" parent="9aYNjaXxrsyocUO3HqyN-53">
          <mxGeometry x="30" width="280" height="30" as="geometry" />
        </mxCell>
        <mxCell id="9aYNjaXxrsyocUO3HqyN-56" value="" style="shape=partialRectangle;collapsible=0;dropTarget=0;pointerEvents=0;fillColor=none;points=[[0,0.5],[1,0.5]];portConstraint=eastwest;top=0;left=0;right=0;bottom=0;" vertex="1" parent="9aYNjaXxrsyocUO3HqyN-46">
          <mxGeometry y="120" width="310" height="30" as="geometry" />
        </mxCell>
        <mxCell id="9aYNjaXxrsyocUO3HqyN-57" value="" style="shape=partialRectangle;overflow=hidden;connectable=0;fillColor=none;top=0;left=0;bottom=0;right=0;" vertex="1" parent="9aYNjaXxrsyocUO3HqyN-56">
          <mxGeometry width="30" height="30" as="geometry" />
        </mxCell>
        <mxCell id="9aYNjaXxrsyocUO3HqyN-58" value="capitalize bit NOT NULL" style="shape=partialRectangle;overflow=hidden;connectable=0;fillColor=none;top=0;left=0;bottom=0;right=0;align=left;spacingLeft=6;" vertex="1" parent="9aYNjaXxrsyocUO3HqyN-56">
          <mxGeometry x="30" width="280" height="30" as="geometry" />
        </mxCell>
        <mxCell id="9aYNjaXxrsyocUO3HqyN-59" value="" style="shape=partialRectangle;collapsible=0;dropTarget=0;pointerEvents=0;fillColor=none;points=[[0,0.5],[1,0.5]];portConstraint=eastwest;top=0;left=0;right=0;bottom=0;" vertex="1" parent="9aYNjaXxrsyocUO3HqyN-46">
          <mxGeometry y="150" width="310" height="30" as="geometry" />
        </mxCell>
        <mxCell id="9aYNjaXxrsyocUO3HqyN-60" value="" style="shape=partialRectangle;overflow=hidden;connectable=0;fillColor=none;top=0;left=0;bottom=0;right=0;" vertex="1" parent="9aYNjaXxrsyocUO3HqyN-59">
          <mxGeometry width="30" height="30" as="geometry" />
        </mxCell>
        <mxCell id="9aYNjaXxrsyocUO3HqyN-61" value="processed datetime2(7) NOT NULL" style="shape=partialRectangle;overflow=hidden;connectable=0;fillColor=none;top=0;left=0;bottom=0;right=0;align=left;spacingLeft=6;" vertex="1" parent="9aYNjaXxrsyocUO3HqyN-59">
          <mxGeometry x="30" width="280" height="30" as="geometry" />
        </mxCell>
        <mxCell id="9aYNjaXxrsyocUO3HqyN-70" value="dbo.work_order" style="shape=table;startSize=30;container=1;collapsible=1;childLayout=tableLayout;fixedRows=1;rowLines=0;fontStyle=1;align=center;resizeLast=1;fillColor=#ffe6cc;strokeColor=#d79b00;" vertex="1" parent="1">
          <mxGeometry x="-130" y="220" width="320" height="340" as="geometry" />
        </mxCell>
        <mxCell id="9aYNjaXxrsyocUO3HqyN-95" value="" style="shape=partialRectangle;collapsible=0;dropTarget=0;pointerEvents=0;fillColor=none;points=[[0,0.5],[1,0.5]];portConstraint=eastwest;top=0;left=0;right=0;bottom=1;" vertex="1" parent="9aYNjaXxrsyocUO3HqyN-70">
          <mxGeometry y="30" width="320" height="30" as="geometry" />
        </mxCell>
        <mxCell id="9aYNjaXxrsyocUO3HqyN-96" value="PK" style="shape=partialRectangle;overflow=hidden;connectable=0;fillColor=none;top=0;left=0;bottom=0;right=0;fontStyle=1;" vertex="1" parent="9aYNjaXxrsyocUO3HqyN-95">
          <mxGeometry width="30" height="30" as="geometry" />
        </mxCell>
        <mxCell id="9aYNjaXxrsyocUO3HqyN-97" value="work_order_id bigint IDENTITY(1,1) NOT NULL" style="shape=partialRectangle;overflow=hidden;connectable=0;fillColor=none;top=0;left=0;bottom=0;right=0;align=left;spacingLeft=6;fontStyle=5;" vertex="1" parent="9aYNjaXxrsyocUO3HqyN-95">
          <mxGeometry x="30" width="290" height="30" as="geometry" />
        </mxCell>
        <mxCell id="9aYNjaXxrsyocUO3HqyN-71" value="" style="shape=partialRectangle;collapsible=0;dropTarget=0;pointerEvents=0;fillColor=none;points=[[0,0.5],[1,0.5]];portConstraint=eastwest;top=0;left=0;right=0;bottom=0;" vertex="1" parent="9aYNjaXxrsyocUO3HqyN-70">
          <mxGeometry y="60" width="320" height="30" as="geometry" />
        </mxCell>
        <mxCell id="9aYNjaXxrsyocUO3HqyN-72" value="" style="shape=partialRectangle;overflow=hidden;connectable=0;fillColor=none;top=0;left=0;bottom=0;right=0;" vertex="1" parent="9aYNjaXxrsyocUO3HqyN-71">
          <mxGeometry width="30" height="30" as="geometry" />
        </mxCell>
        <mxCell id="9aYNjaXxrsyocUO3HqyN-73" value="work_order_id bigint IDENTITY(1,1) NOT NULL" style="shape=partialRectangle;overflow=hidden;connectable=0;fillColor=none;top=0;left=0;bottom=0;right=0;align=left;spacingLeft=6;" vertex="1" parent="9aYNjaXxrsyocUO3HqyN-71">
          <mxGeometry x="30" width="290" height="30" as="geometry" />
        </mxCell>
        <mxCell id="9aYNjaXxrsyocUO3HqyN-74" value="" style="shape=partialRectangle;collapsible=0;dropTarget=0;pointerEvents=0;fillColor=none;points=[[0,0.5],[1,0.5]];portConstraint=eastwest;top=0;left=0;right=0;bottom=0;" vertex="1" parent="9aYNjaXxrsyocUO3HqyN-70">
          <mxGeometry y="90" width="320" height="30" as="geometry" />
        </mxCell>
        <mxCell id="9aYNjaXxrsyocUO3HqyN-75" value="" style="shape=partialRectangle;overflow=hidden;connectable=0;fillColor=none;top=0;left=0;bottom=0;right=0;" vertex="1" parent="9aYNjaXxrsyocUO3HqyN-74">
          <mxGeometry width="30" height="30" as="geometry" />
        </mxCell>
        <mxCell id="9aYNjaXxrsyocUO3HqyN-76" value="[name] [varchar](128) NOT NULL" style="shape=partialRectangle;overflow=hidden;connectable=0;fillColor=none;top=0;left=0;bottom=0;right=0;align=left;spacingLeft=6;" vertex="1" parent="9aYNjaXxrsyocUO3HqyN-74">
          <mxGeometry x="30" width="290" height="30" as="geometry" />
        </mxCell>
        <mxCell id="9aYNjaXxrsyocUO3HqyN-77" value="" style="shape=partialRectangle;collapsible=0;dropTarget=0;pointerEvents=0;fillColor=none;points=[[0,0.5],[1,0.5]];portConstraint=eastwest;top=0;left=0;right=0;bottom=0;" vertex="1" parent="9aYNjaXxrsyocUO3HqyN-70">
          <mxGeometry y="120" width="320" height="30" as="geometry" />
        </mxCell>
        <mxCell id="9aYNjaXxrsyocUO3HqyN-78" value="" style="shape=partialRectangle;overflow=hidden;connectable=0;fillColor=none;top=0;left=0;bottom=0;right=0;" vertex="1" parent="9aYNjaXxrsyocUO3HqyN-77">
          <mxGeometry width="30" height="30" as="geometry" />
        </mxCell>
        <mxCell id="9aYNjaXxrsyocUO3HqyN-79" value="[scheduled_start] [date] NULL" style="shape=partialRectangle;overflow=hidden;connectable=0;fillColor=none;top=0;left=0;bottom=0;right=0;align=left;spacingLeft=6;" vertex="1" parent="9aYNjaXxrsyocUO3HqyN-77">
          <mxGeometry x="30" width="290" height="30" as="geometry" />
        </mxCell>
        <mxCell id="9aYNjaXxrsyocUO3HqyN-80" value="" style="shape=partialRectangle;collapsible=0;dropTarget=0;pointerEvents=0;fillColor=none;points=[[0,0.5],[1,0.5]];portConstraint=eastwest;top=0;left=0;right=0;bottom=0;" vertex="1" parent="9aYNjaXxrsyocUO3HqyN-70">
          <mxGeometry y="150" width="320" height="30" as="geometry" />
        </mxCell>
        <mxCell id="9aYNjaXxrsyocUO3HqyN-81" value="" style="shape=partialRectangle;overflow=hidden;connectable=0;fillColor=none;top=0;left=0;bottom=0;right=0;" vertex="1" parent="9aYNjaXxrsyocUO3HqyN-80">
          <mxGeometry width="30" height="30" as="geometry" />
        </mxCell>
        <mxCell id="9aYNjaXxrsyocUO3HqyN-82" value="[scheduled_end] [date] NULL" style="shape=partialRectangle;overflow=hidden;connectable=0;fillColor=none;top=0;left=0;bottom=0;right=0;align=left;spacingLeft=6;" vertex="1" parent="9aYNjaXxrsyocUO3HqyN-80">
          <mxGeometry x="30" width="290" height="30" as="geometry" />
        </mxCell>
        <mxCell id="9aYNjaXxrsyocUO3HqyN-83" value="" style="shape=partialRectangle;collapsible=0;dropTarget=0;pointerEvents=0;fillColor=none;points=[[0,0.5],[1,0.5]];portConstraint=eastwest;top=0;left=0;right=0;bottom=0;" vertex="1" parent="9aYNjaXxrsyocUO3HqyN-70">
          <mxGeometry y="180" width="320" height="30" as="geometry" />
        </mxCell>
        <mxCell id="9aYNjaXxrsyocUO3HqyN-84" value="" style="shape=partialRectangle;overflow=hidden;connectable=0;fillColor=none;top=0;left=0;bottom=0;right=0;" vertex="1" parent="9aYNjaXxrsyocUO3HqyN-83">
          <mxGeometry width="30" height="30" as="geometry" />
        </mxCell>
        <mxCell id="9aYNjaXxrsyocUO3HqyN-85" value="[actual_start] [date] NULL" style="shape=partialRectangle;overflow=hidden;connectable=0;fillColor=none;top=0;left=0;bottom=0;right=0;align=left;spacingLeft=6;" vertex="1" parent="9aYNjaXxrsyocUO3HqyN-83">
          <mxGeometry x="30" width="290" height="30" as="geometry" />
        </mxCell>
        <mxCell id="9aYNjaXxrsyocUO3HqyN-86" value="" style="shape=partialRectangle;collapsible=0;dropTarget=0;pointerEvents=0;fillColor=none;points=[[0,0.5],[1,0.5]];portConstraint=eastwest;top=0;left=0;right=0;bottom=0;" vertex="1" parent="9aYNjaXxrsyocUO3HqyN-70">
          <mxGeometry y="210" width="320" height="30" as="geometry" />
        </mxCell>
        <mxCell id="9aYNjaXxrsyocUO3HqyN-87" value="" style="shape=partialRectangle;overflow=hidden;connectable=0;fillColor=none;top=0;left=0;bottom=0;right=0;" vertex="1" parent="9aYNjaXxrsyocUO3HqyN-86">
          <mxGeometry width="30" height="30" as="geometry" />
        </mxCell>
        <mxCell id="9aYNjaXxrsyocUO3HqyN-88" value="[actual_end] [date] NULL" style="shape=partialRectangle;overflow=hidden;connectable=0;fillColor=none;top=0;left=0;bottom=0;right=0;align=left;spacingLeft=6;" vertex="1" parent="9aYNjaXxrsyocUO3HqyN-86">
          <mxGeometry x="30" width="290" height="30" as="geometry" />
        </mxCell>
        <mxCell id="9aYNjaXxrsyocUO3HqyN-89" value="" style="shape=partialRectangle;collapsible=0;dropTarget=0;pointerEvents=0;fillColor=none;points=[[0,0.5],[1,0.5]];portConstraint=eastwest;top=0;left=0;right=0;bottom=0;" vertex="1" parent="9aYNjaXxrsyocUO3HqyN-70">
          <mxGeometry y="240" width="320" height="30" as="geometry" />
        </mxCell>
        <mxCell id="9aYNjaXxrsyocUO3HqyN-90" value="" style="shape=partialRectangle;overflow=hidden;connectable=0;fillColor=none;top=0;left=0;bottom=0;right=0;" vertex="1" parent="9aYNjaXxrsyocUO3HqyN-89">
          <mxGeometry width="30" height="30" as="geometry" />
        </mxCell>
        <mxCell id="9aYNjaXxrsyocUO3HqyN-91" value="work_order_type varchar(128) NOT NULL" style="shape=partialRectangle;overflow=hidden;connectable=0;fillColor=none;top=0;left=0;bottom=0;right=0;align=left;spacingLeft=6;" vertex="1" parent="9aYNjaXxrsyocUO3HqyN-89">
          <mxGeometry x="30" width="290" height="30" as="geometry" />
        </mxCell>
        <mxCell id="9aYNjaXxrsyocUO3HqyN-92" value="" style="shape=partialRectangle;collapsible=0;dropTarget=0;pointerEvents=0;fillColor=none;points=[[0,0.5],[1,0.5]];portConstraint=eastwest;top=0;left=0;right=0;bottom=0;" vertex="1" parent="9aYNjaXxrsyocUO3HqyN-70">
          <mxGeometry y="270" width="320" height="30" as="geometry" />
        </mxCell>
        <mxCell id="9aYNjaXxrsyocUO3HqyN-93" value="" style="shape=partialRectangle;overflow=hidden;connectable=0;fillColor=none;top=0;left=0;bottom=0;right=0;" vertex="1" parent="9aYNjaXxrsyocUO3HqyN-92">
          <mxGeometry width="30" height="30" as="geometry" />
        </mxCell>
        <mxCell id="9aYNjaXxrsyocUO3HqyN-94" value="[processed] [datetime2](7) NOT NULL" style="shape=partialRectangle;overflow=hidden;connectable=0;fillColor=none;top=0;left=0;bottom=0;right=0;align=left;spacingLeft=6;" vertex="1" parent="9aYNjaXxrsyocUO3HqyN-92">
          <mxGeometry x="30" width="290" height="30" as="geometry" />
        </mxCell>
        <mxCell id="9aYNjaXxrsyocUO3HqyN-98" value="" style="shape=partialRectangle;collapsible=0;dropTarget=0;pointerEvents=0;fillColor=none;points=[[0,0.5],[1,0.5]];portConstraint=eastwest;top=0;left=0;right=0;bottom=0;" vertex="1" parent="9aYNjaXxrsyocUO3HqyN-70">
          <mxGeometry y="300" width="320" height="30" as="geometry" />
        </mxCell>
        <mxCell id="9aYNjaXxrsyocUO3HqyN-99" value="" style="shape=partialRectangle;overflow=hidden;connectable=0;fillColor=none;top=0;left=0;bottom=0;right=0;" vertex="1" parent="9aYNjaXxrsyocUO3HqyN-98">
          <mxGeometry width="30" height="30" as="geometry" />
        </mxCell>
        <mxCell id="9aYNjaXxrsyocUO3HqyN-100" value="[work_order_id] ASC" style="shape=partialRectangle;overflow=hidden;connectable=0;fillColor=none;top=0;left=0;bottom=0;right=0;align=left;spacingLeft=6;" vertex="1" parent="9aYNjaXxrsyocUO3HqyN-98">
          <mxGeometry x="30" width="290" height="30" as="geometry" />
        </mxCell>
      </root>
    </mxGraphModel>
  </diagram>
</mxfile>
